{
  "source": "C:\\Users\\Peter\\Desktop\\stuff\\MIUN\\quantitative_research\\video_compression\\videos\\BVI-HD\\Surfers_1920x1080_30fps.mp4",
  "output": "C:\\Users\\Peter\\Desktop\\stuff\\MIUN\\quantitative_research\\video_compression\\compressed_videos\\BVI-HD\\h264\\12\\Surfers_1920x1080_30fps_h264.mp4",
  "codec": "h264",
  "ok": "Input #0, mov,mp4,m4a,3gp,3g2,mj2, from 'C:\\Users\\Peter\\Desktop\\stuff\\MIUN\\quantitative_research\\video_compression\\videos\\BVI-HD\\Surfers_1920x1080_30fps.mp4':\n  Metadata:\n    major_brand     : isom\n    minor_version   : 512\n    compatible_brands: isomiso2avc1mp41\n    encoder         : Lavf54.28.101\n  Duration: 00:00:05.00, start: 0.000000, bitrate: 232762 kb/s\n  Stream #0:0[0x1](und): Video: h264 (High 4:4:4 Predictive) (avc1 / 0x31637661), yuv420p(progressive), 1920x1080, 232759 kb/s, 30 fps, 30 tbr, 30 tbn (default)\n    Metadata:\n      handler_name    : VideoHandler\n      vendor_id       : [0][0][0][0]\n[out#0/mp4 @ 000001e80e19acc0] Codec AVOption b:a (set bitrate (in bits/s)) has not been used for any stream. The most likely reason is either wrong type (e.g. a video option with no video streams) or that it is a private option of some decoder which was not actually used for any stream.\nStream mapping:\n  Stream #0:0 -> #0:0 (h264 (native) -> h264 (libx264))\nPress [q] to stop, [?] for help\n[libx264 @ 000001e80c4e68c0] using cpu capabilities: MMX2 SSE2Fast SSSE3 SSE4.2 AVX FMA3 BMI2 AVX2\n[libx264 @ 000001e80c4e68c0] profile High, level 5.0, 4:2:0, 8-bit\n[libx264 @ 000001e80c4e68c0] 264 - core 165 r3222 b35605a - H.264/MPEG-4 AVC codec - Copyleft 2003-2025 - http://www.videolan.org/x264.html - options: cabac=1 ref=5 deblock=1:0:0 analyse=0x3:0x113 me=hex subme=8 psy=1 psy_rd=1.00:0.00 mixed_ref=1 me_range=16 chroma_me=1 trellis=2 8x8dct=1 cqm=0 deadzone=21,11 fast_pskip=1 chroma_qp_offset=-2 threads=18 lookahead_threads=3 sliced_threads=0 nr=0 decimate=1 interlaced=0 bluray_compat=0 constrained_intra=0 bframes=3 b_pyramid=2 b_adapt=1 b_bias=0 direct=3 weightb=1 open_gop=0 weightp=2 keyint=250 keyint_min=25 scenecut=40 intra_refresh=0 rc_lookahead=50 rc=cbr mbtree=1 bitrate=12000 ratetol=1.0 qcomp=0.60 qpmin=0 qpmax=69 qpstep=4 vbv_maxrate=12000 vbv_bufsize=12000 nal_hrd=none filler=0 ip_ratio=1.40 aq=1:1.00\nOutput #0, mp4, to 'C:\\Users\\Peter\\Desktop\\stuff\\MIUN\\quantitative_research\\video_compression\\compressed_videos\\BVI-HD\\h264\\12\\Surfers_1920x1080_30fps_h264.mp4':\n  Metadata:\n    major_brand     : isom\n    minor_version   : 512\n    compatible_brands: isomiso2avc1mp41\n    encoder         : Lavf62.3.100\n  Stream #0:0(und): Video: h264 (avc1 / 0x31637661), yuv420p(tv, progressive), 1920x1080, q=2-31, 12000 kb/s, 30 fps, 15360 tbn (default)\n    Metadata:\n      encoder         : Lavc62.11.100 libx264\n      handler_name    : VideoHandler\n      vendor_id       : [0][0][0][0]\n    Side data:\n      cpb: bitrate max/min/avg: 12000000/0/12000000 buffer size: 12000000 vbv_delay: N/A\nframe=    0 fps=0.0 q=0.0 size=       0KiB time=N/A bitrate=N/A speed=N/A elapsed=0:00:00.51    \nframe=    0 fps=0.0 q=0.0 size=       0KiB time=N/A bitrate=N/A speed=N/A elapsed=0:00:01.16    \nframe=    0 fps=0.0 q=0.0 size=       0KiB time=N/A bitrate=N/A speed=N/A elapsed=0:00:01.71    \nframe=    0 fps=0.0 q=0.0 size=       0KiB time=N/A bitrate=N/A speed=N/A elapsed=0:00:02.22    \nframe=    9 fps=3.2 q=28.0 size=     256KiB time=00:00:00.13 bitrate=15731.6kbits/s speed=0.0476x elapsed=0:00:02.80    \nframe=   13 fps=3.8 q=28.0 size=     512KiB time=00:00:00.33 bitrate=12584.1kbits/s speed=0.0972x elapsed=0:00:03.43    \nframe=   28 fps=6.9 q=27.0 size=    1280KiB time=00:00:00.86 bitrate=12099.4kbits/s speed=0.214x elapsed=0:00:04.04    \nframe=   38 fps=8.2 q=27.0 size=    1536KiB time=00:00:01.20 bitrate=10486.1kbits/s speed=0.258x elapsed=0:00:04.64    \nframe=   46 fps=8.8 q=27.0 size=    2048KiB time=00:00:01.46 bitrate=11439.3kbits/s speed=0.282x elapsed=0:00:05.19    \nframe=   57 fps=9.9 q=27.0 size=    2560KiB time=00:00:01.83 bitrate=11439.2kbits/s speed=0.319x elapsed=0:00:05.74    \nframe=   61 fps=9.5 q=27.0 size=    2816KiB time=00:00:01.90 bitrate=12141.6kbits/s speed=0.297x elapsed=0:00:06.40    \nframe=   76 fps= 11 q=27.0 size=    3328KiB time=00:00:02.46 bitrate=11052.7kbits/s speed=0.351x elapsed=0:00:07.02    \nframe=   86 fps= 11 q=27.0 size=    3840KiB time=00:00:02.80 bitrate=11234.9kbits/s speed=0.369x elapsed=0:00:07.58    \nframe=   95 fps= 12 q=28.0 size=    4352KiB time=00:00:03.00 bitrate=11884.0kbits/s speed=0.37x elapsed=0:00:08.10    \nframe=  110 fps= 13 q=28.0 size=    5120KiB time=00:00:03.60 bitrate=11651.0kbits/s speed=0.415x elapsed=0:00:08.67    \nframe=  119 fps= 13 q=28.0 size=    5632KiB time=00:00:03.86 bitrate=11932.2kbits/s speed=0.419x elapsed=0:00:09.21    \nframe=  122 fps= 12 q=27.0 size=    5888KiB time=00:00:04.00 bitrate=12058.7kbits/s speed=0.409x elapsed=0:00:09.77    \nframe=  134 fps= 13 q=-1.0 size=    6400KiB time=00:00:04.40 bitrate=11915.7kbits/s speed=0.428x elapsed=0:00:10.28    \nframe=  149 fps= 14 q=-1.0 size=    7168KiB time=00:00:04.90 bitrate=11983.8kbits/s speed=0.453x elapsed=0:00:10.82    \n[mp4 @ 000001e80c461580] Starting second pass: moving the moov atom to the beginning of the file\n[out#0/mp4 @ 000001e80e19acc0] video:7427KiB audio:0KiB subtitle:0KiB other streams:0KiB global headers:0KiB muxing overhead: 0.036067%\nframe=  150 fps= 14 q=-1.0 Lsize=    7430KiB time=00:00:04.93 bitrate=12337.3kbits/s speed=0.455x elapsed=0:00:10.85    \n[libx264 @ 000001e80c4e68c0] frame I:2     Avg QP:21.18  size: 88766\n[libx264 @ 000001e80c4e68c0] frame P:41    Avg QP:24.47  size: 70694\n[libx264 @ 000001e80c4e68c0] frame B:107   Avg QP:25.53  size: 42322\n[libx264 @ 000001e80c4e68c0] consecutive B-frames:  2.7%  4.0%  8.0% 85.3%\n[libx264 @ 000001e80c4e68c0] mb I  I16..4: 31.5% 60.4%  8.2%\n[libx264 @ 000001e80c4e68c0] mb P  I16..4:  2.2% 22.2%  3.0%  P16..4: 42.9% 13.1%  7.1%  0.0%  0.0%    skip: 9.4%\n[libx264 @ 000001e80c4e68c0] mb B  I16..4:  0.3%  3.2%  0.5%  B16..8: 47.5% 10.3%  2.1%  direct:14.1%  skip:22.0%  L0:45.3% L1:41.2% BI:13.5%\n[libx264 @ 000001e80c4e68c0] 8x8 transform intra:78.2% inter:80.6%\n[libx264 @ 000001e80c4e68c0] direct mvs  spatial:91.6% temporal:8.4%\n[libx264 @ 000001e80c4e68c0] coded y,uvDC,uvAC intra: 85.1% 55.7% 7.2% inter: 37.0% 32.0% 0.0%\n[libx264 @ 000001e80c4e68c0] i16 v,h,dc,p:  5% 62%  5% 27%\n[libx264 @ 000001e80c4e68c0] i8 v,h,dc,ddl,ddr,vr,hd,vl,hu:  4% 48%  3%  3%  5%  3% 16%  2% 16%\n[libx264 @ 000001e80c4e68c0] i4 v,h,dc,ddl,ddr,vr,hd,vl,hu:  2% 43%  3%  3%  6%  3% 19%  3% 18%\n[libx264 @ 000001e80c4e68c0] i8c dc,h,v,p: 24% 59% 10%  7%\n[libx264 @ 000001e80c4e68c0] Weighted P-Frames: Y:0.0% UV:0.0%\n[libx264 @ 000001e80c4e68c0] ref P L0: 46.7% 11.7% 19.6% 11.7% 10.1%  0.1%\n[libx264 @ 000001e80c4e68c0] ref B L0: 78.5% 13.6%  6.2%  1.7%\n[libx264 @ 000001e80c4e68c0] ref B L1: 92.8%  7.2%\n[libx264 @ 000001e80c4e68c0] kb/s:12167.17\n",
  "seconds": 11.57093071937561,
  "probe_out": {}
}